<?xml version="1.0" encoding="utf-8"?>
<!-- Generator: Adobe Illustrator 25.4.1, SVG Export Plug-In . SVG Version: 6.00 Build 0)  -->
<svg version="1.1" id="Layer_1" xmlns="http://www.w3.org/2000/svg" xmlns:xlink="http://www.w3.org/1999/xlink" x="0px" y="0px"
	 viewBox="0 0 350.01 349.45" style="enable-background:new 0 0 350.01 349.45;" xml:space="preserve">
<style type="text/css">
	.st0{fill:#FFD014;}
	.st1{fill-rule:evenodd;clip-rule:evenodd;fill:#FFFFFF;}
	.st2{fill:#FFFFFF;}
</style>
<path class="st0" d="M175.01,0C78.35,0,0,78.35,0,175.01c0,23.21,4.56,45.35,12.77,65.61h63.89h64.39h67.98h78.65h49.57
	c8.2-20.27,12.76-42.4,12.76-65.61C350.01,78.35,271.66,0,175.01,0z"/>
<path class="st1" d="M204.77,342.21c2,0,3.62,1.62,3.62,3.62c0,2-1.62,3.62-3.62,3.62h-59.53c-2,0-3.62-1.62-3.62-3.62
	c0-2,1.62-3.62,3.62-3.62H204.77L204.77,342.21z"/>
<path class="st1" d="M65.96,313.84c-2,0-3.62-1.62-3.62-3.62c0-2,1.62-3.62,3.62-3.62h218.1c2,0,3.62,1.62,3.62,3.62
	c0,2-1.62,3.62-3.62,3.62H65.96L65.96,313.84z"/>
<path class="st1" d="M256.97,324.41c2,0,3.62,1.62,3.62,3.62c0,2-1.62,3.62-3.62,3.62H93.05c-2,0-3.62-1.62-3.62-3.62
	c0-2,1.62-3.62,3.62-3.62H256.97L256.97,324.41z"/>
<path class="st1" d="M145.24,349.45c-2,0-3.62-1.62-3.62-3.62c0-2,1.62-3.62,3.62-3.62h59.53c2,0,3.62,1.62,3.62,3.62
	c0,2-1.62,3.62-3.62,3.62H145.24L145.24,349.45z"/>
<path class="st2" d="M248.9,175.03c0-40.77-33.1-73.86-73.86-73.86c-40.77,0-73.86,33.1-73.86,73.86
	c0,28.51,16.19,53.27,39.87,65.58h67.98C232.71,228.31,248.9,203.55,248.9,175.03z"/>
<path class="st1" d="M328.89,253.2c2,0,3.62,1.62,3.62,3.62s-1.62,3.62-3.62,3.62H21.12c-2,0-3.62-1.62-3.62-3.62
	s1.62-3.62,3.62-3.62H328.89L328.89,253.2z"/>
<path class="st1" d="M32.29,278.24c-2,0-3.62-1.62-3.62-3.62c0-2,1.62-3.62,3.62-3.62h285.44c2,0,3.62,1.62,3.62,3.62
	c0,2-1.62,3.62-3.62,3.62H32.29L32.29,278.24z"/>
<path class="st1" d="M46.76,296.04c-2,0-3.62-1.62-3.62-3.62c0-2,1.62-3.62,3.62-3.62h256.5c2,0,3.62,1.62,3.62,3.62
	c0,2-1.62,3.62-3.62,3.62H46.76L46.76,296.04z"/>
</svg>
